<svg xmlns="http://www.w3.org/2000/svg" viewBox="0 0 966 772"><polyline points="451,717 450,718 449,718 446,721 446,729 449,732 450,732 451,733 458,733 459,732 460,732 462,730 462,727 460,725 460,724 457,721 457,720 454,717" stroke="black" fill="none" stroke-width="1"/><polyline points="322,715 322,735" stroke="black" fill="none" stroke-width="1"/><polyline points="636,706 636,708 635,709 635,710 634,711 634,714 632,716 632,721 633,722 642,722 643,721 643,719 642,718 642,717 641,716 641,714 640,713 640,712 639,711 639,708 638,707 638,706 638,709 639,710 639,712 641,714 641,717 643,719 643,720 641,722 633,722 632,721 632,717 633,716 633,715 634,714 634,712 635,711 635,710 636,709" stroke="black" fill="none" stroke-width="1"/><polyline points="864,695 868,695 869,696 869,736 867,738 866,738 865,737 864,737 865,737 866,738 867,738 868,737 869,737 869,695" stroke="black" fill="none" stroke-width="1"/><polyline points="835,695 835,737 836,737 837,738 838,738 839,737 841,737 840,736 840,721 841,720 842,720 843,719 861,719 864,722 864,735 864,722 863,721 864,720 863,720 862,719 842,719 840,721 840,736 838,738 837,738 835,736 835,696 836,695 839,695 840,696 840,712 841,712 842,713 862,713 863,712 864,712 863,711 864,710 864,697 864,710 861,713 843,713 842,712 841,712 840,711 840,695" stroke="black" fill="none" stroke-width="1"/><polyline points="557,695 557,737 558,737 559,738 560,738 561,737 562,737 562,724 564,722 570,722 573,725 573,726 574,727 574,728 575,729 575,730 578,733 578,734 579,735 579,736 580,737 581,737 582,738 585,738 586,737 587,737 586,736 587,735 584,732 584,731 582,729 582,728 581,727 581,726 579,724 579,723 577,721 582,716 582,714 583,713 583,712 584,711 584,704 583,703 583,702 582,701 582,700 579,697 578,697 576,695" stroke="black" fill="none" stroke-width="1"/><polyline points="250,695 250,696 249,697 249,735 250,736 250,737 251,737 252,738 253,737 255,737 254,736 254,724 256,722 262,722 265,725 265,726 267,728 267,729 270,732 270,733 271,734 271,735 272,736 272,737 274,737 275,738 277,738 278,737 279,737 279,735 277,733 277,732 275,730 275,729 274,728 274,727 272,725 272,724 270,722 270,720 271,719 272,719 272,718 273,717 274,717 274,714 276,712 276,710 277,709 277,706 276,705 276,703 275,702 275,701 274,700 274,699 273,699 272,698 272,697 271,697 270,696 269,696 268,695" stroke="black" fill="none" stroke-width="1"/><polyline points="120,695 144,695 145,696 145,698 144,699 127,699 126,700 125,700 125,712 126,713 141,713 143,715 143,718 142,719 128,719 127,720 126,719 125,720 125,736 123,738 122,738 120,736 120,697 120,736 119,737 121,737 122,738 123,738 124,737 125,737 125,721 126,720 127,720 128,719 143,719 143,714 142,714 141,713 127,713 125,711 125,701 127,699 145,699 145,695" stroke="black" fill="none" stroke-width="1"/><polyline points="782,694 781,695 777,695 775,697 774,697 773,698 772,698 769,701 769,702 768,703 768,704 766,706 766,707 765,708 765,724 766,725 766,726 767,727 767,728 774,735 775,735 776,736 777,736 778,737 780,737 781,738 792,738 793,737 795,737 796,736 797,736 798,735 799,735 799,733 797,731 797,730 797,732 798,732 799,733 799,734 798,735 797,735 796,736 795,736 794,737 793,737 792,738 781,738 780,737 779,737 778,736 777,736 776,735 775,735 767,727 767,726 766,725 766,724 765,723 765,709 766,708 766,707 767,706 767,705 769,703 769,702 773,698 774,698 775,697 776,697 778,695 781,695 782,694 790,694 791,695 794,695 797,698 797,700 795,702 794,701 793,701 792,700 791,700 790,699 782,699 780,701 778,701 773,706 773,707 772,708 772,712 770,714 770,718 772,720 772,725 774,727 774,728 775,728 778,731 780,731 781,732 782,732 783,733 789,733 791,731 792,732 793,731 795,731 795,730 794,730 793,731 791,731 789,733 783,733 781,731 779,731 776,728 775,728 774,727 774,726 772,724 772,720 770,718 770,714 772,712 772,709 773,708 773,707 779,701 781,701 781,700 782,699 790,699 792,701 794,701 795,702 796,701 797,701 797,700 798,699 799,699 798,699 797,698 798,697 799,697 797,697 795,695 791,695 790,694" stroke="black" fill="none" stroke-width="1"/><polyline points="315,694 315,737 316,737 317,738 318,738 319,737 321,737 320,736 318,738 317,738 315,736 315,696 316,695 319,698 319,699 320,700 320,701 324,705 324,706 326,708 326,709 329,712 329,713 331,715 331,716 333,718 333,719 336,722 338,722 338,721 340,719 340,718 343,715 343,714 346,711 346,710 349,707 349,706 351,704 351,703 354,700 354,699 356,697 356,696 357,695 358,696 358,736 356,738 355,738 353,736 353,710 352,711 351,710 351,711 349,713 349,714 348,715 348,716 345,719 345,720 342,723 342,724 340,726 340,727 338,729 338,730 337,731 336,731 335,730 335,729 331,725 331,724 330,723 330,722 327,719 327,718 324,715 324,713 322,711 321,711 320,710 320,715 320,712 321,711 324,714 324,716 327,719 327,720 330,723 330,724 331,725 331,726 335,730 335,731 338,731 338,730 340,728 340,727 342,725 342,724 345,721 345,720 348,717 348,716 349,715 349,714 352,711 353,712 353,737 354,737 355,738 356,738 357,737 358,737 358,694 357,695 356,694 356,696 354,698 354,699 351,702 351,703 349,705 349,706 346,709 346,710 343,713 343,714 340,717 340,718 338,720 338,721 337,722 333,718 333,717 331,715 331,714 329,712 329,711 326,708 326,707 324,705 324,704 320,700 320,699 319,698 319,697 317,695 317,694 316,695" stroke="black" fill="none" stroke-width="1"/><polyline points="693,693 692,694 691,694 691,737 692,737 693,738 694,738 695,737 697,737 697,710 698,709 699,709 702,712 702,713 703,713 704,714 704,715 705,715 706,716 706,717 707,717 708,718 708,719 709,720 710,720 711,721 711,722 727,738 727,737 711,721 711,720 710,720 708,718 708,717 707,717 706,716 706,715 705,715 704,714 704,713 703,713 702,712 702,711 699,708 698,709 697,709 697,736 696,737 695,737 694,738 693,738 691,736 691,695 692,694 698,700 698,701 699,701 700,702 700,703 720,723 720,724 721,724 722,723 722,696 723,695 728,695 729,696 729,738 729,695 723,695 722,696 722,723 721,724 720,723 720,722 700,702 700,701 699,701 698,700 698,699 693,694" stroke="black" fill="none" stroke-width="1"/><polyline points="636,693 636,696 634,698 634,700 633,701 633,702 632,703 632,705 631,706 631,707 630,708 630,710 629,711 629,712 628,713 628,714 627,715 627,717 626,718 626,719 625,720 625,722 623,724 623,727 622,728 622,729 621,730 621,731 620,732 620,734 618,736 620,738 622,738 623,737 624,737 625,736 625,734 626,733 626,732 627,731 627,729 630,726 644,726 645,727 645,728 647,730 647,731 648,732 648,735 650,737 651,737 652,738 654,738 655,737 656,737 656,735 654,733 654,731 653,730 653,729 652,728 652,726 651,725 651,724 650,723 650,721 649,720 649,719 648,718 648,717 647,716 647,714 645,712 645,709 643,707 643,704 642,703 642,702 641,701 641,699 640,698 640,697 639,696 639,695 638,694 638,693 638,695 639,696 639,697 640,698 640,699 641,700 641,702 642,703 642,704 643,705 643,707 644,708 644,709 645,710 645,712 646,713 646,714 647,715 647,716 648,717 648,719 649,720 649,721 650,722 650,724 651,725 651,726 652,727 652,729 653,730 653,731 654,732 654,733 655,734 655,735 654,736 655,737 654,738 652,738 648,734 648,732 647,731 647,729 645,727 645,726 630,726 629,727 628,727 627,728 627,730 626,731 626,732 625,733 625,735 622,738 620,738 618,736 619,735 620,735 620,732 621,731 621,730 622,729 622,728 623,727 623,725 625,723 625,721 626,720 626,719 627,718 627,716 628,715 628,714 629,713 629,711 630,710 630,709 631,708 631,707 632,706 632,704 633,703 633,702 634,701 634,699 636,697" stroke="black" fill="none" stroke-width="1"/><polyline points="195,693 195,695 193,697 193,700 191,702 191,705 189,707 189,709 188,710 188,711 187,712 187,713 186,714 186,716 185,717 185,718 184,719 184,721 183,722 183,723 182,724 182,727 180,729 180,730 179,731 179,733 177,735 177,737 178,737 179,738 180,738 181,737 183,737 184,736 184,733 185,732 185,731 186,730 186,728 188,726 202,726 205,729 205,730 206,731 206,732 207,733 207,735 208,736 208,737 210,737 211,738 212,738 213,737 215,737 215,735 214,735 213,734 213,731 211,729 211,726 210,725 210,724 209,723 209,721 207,719 207,717 206,716 206,715 205,714 205,713 204,712 204,710 203,709 203,708 202,707 202,705 201,704 201,703 200,702 200,700 199,699 199,698 198,697 198,696 197,695 197,693 196,694" stroke="black" fill="none" stroke-width="1"/><polyline points="454,692 453,693 451,693 449,695 448,695 448,696 446,698 446,706 447,707 447,708 448,709 448,710 449,711 450,711 448,709 448,708 446,706 446,699 448,697 448,696 449,695 450,695 452,693 453,693 454,692 459,692 460,693 461,693 462,694 463,694 464,695 465,695 466,696 466,698 465,699 462,699 460,697 454,697 453,698 453,699 452,700 452,701 451,702 451,703 452,704 452,705 453,706 453,708 457,712 457,713 460,716 460,717 462,719 462,720 464,722 466,722 466,721 467,720 467,718 468,717 468,716 469,715 469,714 470,713 472,713 473,714 473,717 471,719 471,722 470,723 470,724 469,725 469,729 471,731 471,732 475,736 473,738 471,738 467,734 464,734 462,736 461,736 460,737 459,737 458,738 449,738 448,737 447,737 440,730 440,728 439,727 439,724 440,723 440,721 442,719 442,718 443,717 444,717 444,716 445,715 446,715 447,714 448,714 449,713 450,713 448,713 447,714 446,714 445,715 444,715 444,716 443,717 442,717 442,718 440,720 440,723 439,724 439,727 440,728 440,731 446,737 448,737 449,738 458,738 459,737 461,737 462,736 463,736 465,734 466,734 469,737 470,737 471,738 474,738 475,737 475,735 471,731 471,730 469,728 469,726 470,725 470,724 471,723 471,720 473,718 473,713 469,713 469,714 468,715 468,716 467,717 467,719 466,720 466,721 465,722 462,719 462,718 460,716 460,715 457,712 457,711 453,707 453,705 451,703 451,702 453,700 453,699 455,697 459,697 461,699 466,699 466,695 465,695 464,694 463,694 462,693 460,693 459,692" stroke="black" fill="none" stroke-width="1"/><polyline points="702,690 749,690" stroke="black" fill="none" stroke-width="1"/><polyline points="523,690 566,690" stroke="black" fill="none" stroke-width="1"/><polyline points="277,690 320,690" stroke="black" fill="none" stroke-width="1"/><polyline points="101,690 148,690" stroke="black" fill="none" stroke-width="1"/><polyline points="428,663 427,664 428,665 428,674 428,664 429,663 436,663 437,664 437,689 437,663" stroke="black" fill="none" stroke-width="1"/><polyline points="795,645 795,648 794,649 794,674 795,675 795,678 796,679 814,679 815,680 815,687 814,688 814,689 813,690 765,690 813,690 815,688 815,679 796,679 795,678 795,675 794,674 794,649 795,648 795,646 796,645 797,646 797,647 798,647 800,649 801,649 803,651 804,651 807,654 808,654 810,656 811,656 814,659 815,659 817,661 818,661 820,663 821,663 823,665 824,665 827,668 828,668 830,670 831,670 833,672 834,672 838,676 839,676 840,677 841,677 845,681 846,681 847,682 848,682 852,686 853,686 855,688 857,688 858,689 859,689 860,690 867,690 860,690 858,688 856,688 854,686 853,686 849,682 848,682 847,681 846,681 842,677 841,677 840,676 839,676 835,672 834,672 832,670 831,670 829,668 828,668 825,665 824,665 822,663 821,663 819,661 818,661 816,659 815,659 812,656 811,656 809,654 808,654 805,651 804,651 802,649 801,649 799,647 798,647 797,646 797,645" stroke="black" fill="none" stroke-width="1"/><polyline points="609,643 609,678 610,678 611,679 662,679 664,677 668,677 669,676 671,676 673,674 674,674 677,671 677,670 678,669 678,668 679,667 679,654 678,653 678,652 677,651 677,650 672,645 669,645 668,644 667,644 666,643" stroke="black" fill="none" stroke-width="1"/><polyline points="259,643 255,647 255,648 254,649 254,651 255,651 256,652 259,652 260,653 261,653 262,654 263,654 265,656 266,656 268,658 269,658 274,663 277,663 277,660 270,653 270,652 269,652 268,651 268,650 263,645 263,644 262,643" stroke="black" fill="none" stroke-width="1"/><polyline points="130,643 130,653 131,654 185,654 187,652 188,652 189,651 189,645 187,643" stroke="black" fill="none" stroke-width="1"/><polyline points="762,642 763,642 764,643 782,643 783,644 783,677 781,679 763,679 762,680 763,681 763,689 763,680 764,679 782,679 783,678 783,643 764,643 763,642" stroke="black" fill="none" stroke-width="1"/><polyline points="505,642 505,643 499,649 500,649 501,650 500,651 499,651 501,651 502,652 504,652 505,653 506,653 507,654 508,654 509,655 510,655 511,656 512,656 517,661 518,661 519,662 520,662 521,663 523,663 523,661 514,652 514,651 512,649 512,648 507,643 507,642 506,643" stroke="black" fill="none" stroke-width="1"/><polyline points="246,641 247,642 247,643 246,644 245,644 243,642 229,642 243,642 245,644 245,645 240,650 240,651 236,655 236,656 234,658 234,659 228,665 228,666 226,668 226,669 220,675 220,676 217,679 198,679 198,688 245,688 246,689 247,688 247,679 233,679 232,678 232,677 233,676 234,676 234,675 238,671 238,670 240,668 240,667 244,663 245,663 247,661 255,661 257,663 259,663 261,665 262,665 264,667 265,667 267,669 268,669 270,671 271,671 272,672 273,672 274,673 275,673 276,674 280,674 281,675 283,675 284,676 287,676 288,677 289,677 290,678 289,679 275,679 275,680 274,681 274,687 275,688 275,689 276,688 274,686 274,681 276,679 290,679 290,677 289,677 287,675 286,676 284,676 283,675 281,675 280,674 277,674 276,673 275,673 274,672 273,672 272,671 271,671 269,669 268,669 266,667 265,667 263,665 262,665 260,663 258,663 256,661 246,661 244,663 243,663 240,666 240,667 238,669 238,670 234,674 234,675 233,676 232,676 232,679 246,679 247,680 247,687 246,688 199,688 198,687 198,680 199,679 218,679 220,677 220,676 226,670 226,669 228,667 228,666 234,660 234,659 236,657 236,656 240,652 240,651 247,644 247,641" stroke="black" fill="none" stroke-width="1"/><polyline points="765,631 764,632 763,632 763,640 763,633 765,631 795,631 799,635 800,635 801,636 802,636 806,640 807,640 808,641 809,641 813,645 814,645 816,647 817,647 819,649 820,649 823,652 824,652 826,654 827,654 829,656 830,656 832,658 833,658 836,661 837,661 839,663 840,663 842,665 843,665 846,668 847,668 849,670 850,670 854,674 855,674 857,676 860,676 860,643 840,643 838,641 838,633 839,632 840,632 841,631 889,631 892,634 892,641 890,643 871,643 871,685 868,688 869,689 869,687 871,685 871,644 872,643 890,643 891,642 892,642 892,633 891,632 890,632 889,631 841,631 840,632 838,632 838,642 839,642 840,643 859,643 860,644 860,675 859,676 858,676 856,674 855,674 851,670 850,670 848,668 847,668 844,665 843,665 841,663 840,663 838,661 837,661 834,658 833,658 831,656 830,656 828,654 827,654 825,652 824,652 821,649 820,649 818,647 817,647 815,645 814,645 810,641 809,641 808,640 807,640 803,636 802,636 801,635 800,635 797,632 796,632 795,631" stroke="black" fill="none" stroke-width="1"/><polyline points="701,631 700,632 699,632 699,642 700,642 701,643 719,643 720,644 720,677 718,679 699,679 699,688 700,689 701,688 700,688 699,687 699,680 700,679 718,679 719,678 720,678 720,643 701,643 699,641 699,633 701,631 750,631 751,632 751,633 752,634 752,640 751,641 751,642 750,643 731,643 731,678 732,678 733,679 750,679 752,681 752,686 750,688 751,689 751,687 752,686 752,681 751,680 751,679 733,679 731,677 731,644 732,643 750,643 751,642 751,641 752,640 752,634 751,633 751,632 750,631" stroke="black" fill="none" stroke-width="1"/><polyline points="580,631 579,632 578,632 578,634 577,635 577,640 578,641 578,642 579,643 597,643 598,644 598,677 596,679 578,679 578,680 577,681 577,686 578,687 578,689 578,687 577,686 577,681 579,679 596,679 597,678 598,678 598,643 579,643 578,642 578,641 577,640 577,635 578,634 578,633 580,631 662,631 663,632 665,632 666,633 669,633 670,634 672,634 673,635 674,635 675,636 676,636 678,638 679,638 686,645 686,646 687,647 687,648 688,649 688,651 689,652 689,653 690,654 690,667 689,668 689,669 688,670 688,672 687,673 687,674 684,677 684,678 681,681 680,681 677,684 676,684 674,686 672,686 670,688 660,688 658,690 580,690 658,690 660,688 670,688 671,687 672,687 673,686 674,686 675,685 676,685 677,684 678,684 681,681 682,681 684,679 684,678 687,675 687,674 688,673 688,670 689,669 689,668 690,667 690,654 689,653 689,652 688,651 688,648 686,646 686,644 680,638 679,638 677,636 676,636 675,635 674,635 673,634 670,634 669,633 666,633 665,632 663,632 662,631" stroke="black" fill="none" stroke-width="1"/><polyline points="473,631 472,632 471,632 471,641 472,642 473,641 474,642 490,642 491,643 491,644 487,648 487,649 484,652 484,653 478,659 478,660 476,662 476,663 471,668 471,669 468,672 468,673 464,677 464,678 463,679 444,679 444,688 492,688 492,681 493,680 492,679 479,679 478,678 478,677 480,675 480,674 485,669 485,668 487,666 487,665 489,663 490,663 491,662 492,662 493,661 500,661 501,662 502,662 503,663 504,663 506,665 507,665 508,666 509,666 511,668 512,668 514,670 515,670 517,672 519,672 521,674 526,674 527,675 529,675 530,676 533,676 534,677 534,678 533,679 520,679 519,680 519,688 522,688 520,688 519,687 519,681 521,679 534,679 534,678 535,677 534,676 530,676 529,675 527,675 526,674 522,674 520,672 518,672 516,670 515,670 513,668 512,668 510,666 509,666 508,665 507,665 505,663 504,663 503,662 502,662 501,661 492,661 491,662 490,662 489,663 488,663 487,664 487,665 485,667 485,668 480,673 480,674 478,676 478,679 491,679 492,680 492,687 491,688 445,688 444,687 444,680 445,679 464,679 464,678 468,674 468,673 471,670 471,669 476,664 476,663 478,661 478,660 484,654 484,653 487,650 487,649 491,645 491,642 474,642 471,639 471,633 473,631 510,631 512,633 512,634 516,638 516,639 521,644 521,645 524,648 524,649 528,653 528,654 532,658 532,659 535,662 535,663 538,663 539,664 543,660 543,658 544,657 544,656 546,654 552,654 553,655 553,661 552,662 552,663 550,665 550,666 544,672 544,674 548,678 548,679 567,679 568,680 568,689 568,679 549,679 548,678 548,677 544,673 550,667 550,666 552,664 552,662 553,661 553,654 546,654 545,655 544,655 544,657 543,658 543,659 539,663 536,663 535,662 535,661 532,658 532,657 528,653 528,652 524,648 524,647 521,644 521,643 516,638 516,637 512,633 512,632 511,632 510,631" stroke="black" fill="none" stroke-width="1"/><polyline points="337,631 336,632 334,632 334,633 333,634 333,640 334,641 334,642 336,642 337,643 355,643 356,644 356,676 355,677 355,678 354,679 334,679 334,680 333,681 333,686 334,687 334,688 336,688 338,690 435,690 338,690 336,688 335,688 333,686 333,681 335,679 354,679 356,677 356,644 355,643 337,643 336,642 335,642 333,640 333,634 335,632 336,632 337,631 384,631 387,634 387,641 386,642 385,642 384,643 367,643 367,678 368,679 425,679 426,678 426,675 426,678 425,679 369,679 367,677 367,644 368,643 384,643 385,642 387,642 387,634 386,633 386,632 385,632 384,631" stroke="black" fill="none" stroke-width="1"/><polyline points="228,631 227,632 227,641 227,632 228,631 264,631 268,635 268,636 269,636 270,637 270,638 273,641 273,642 277,646 277,647 281,651 281,652 284,655 284,656 288,660 288,661 289,661 290,662 290,663 295,663 297,661 297,659 299,657 299,656 301,654 307,654 308,655 308,660 306,662 306,664 304,666 304,667 301,670 300,670 299,671 299,674 300,675 300,676 303,679 322,679 324,681 324,687 323,688 321,688 323,688 324,687 324,681 323,680 323,679 304,679 300,675 300,674 299,673 299,672 301,670 302,670 304,668 304,667 306,665 306,664 307,663 307,661 308,660 308,654 300,654 299,655 299,656 297,658 297,660 294,663 291,663 288,660 288,659 284,655 284,654 281,651 281,650 277,646 277,645 273,641 273,640 270,637 270,636 269,636 268,635 268,634 266,632 265,632 264,631" stroke="black" fill="none" stroke-width="1"/><polyline points="100,631 99,632 98,632 98,642 99,642 100,643 118,643 119,644 119,675 118,676 119,677 117,679 98,679 98,688 99,689 100,688 99,688 98,687 98,680 99,679 117,679 119,677 118,676 119,675 119,643 100,643 98,641 98,633 100,631 185,631 186,632 187,632 188,633 190,633 191,634 192,634 199,641 199,642 200,643 200,653 199,654 199,655 192,662 191,662 190,663 185,663 183,665 131,665 130,666 130,678 131,678 132,679 151,679 152,680 152,687 151,688 149,688 150,688 151,689 152,688 152,679 133,679 132,678 131,678 130,677 130,667 132,665 183,665 185,663 191,663 192,662 193,662 199,656 199,655 200,654 200,642 199,641 199,640 193,634 191,634 190,633 188,633 187,632 186,632 185,631" stroke="black" fill="none" stroke-width="1"/><polyline points="494,84 494,85 241,338 241,339 240,340 241,341 241,342 494,595 497,595 751,341 750,340 750,338 497,85 496,85 495,84" stroke="black" fill="none" stroke-width="1"/></svg>